<mxfile host="app.diagrams.net" agent="Mozilla/5.0 (X11; Linux x86_64) AppleWebKit/537.36 (KHTML, like Gecko) Chrome/131.0.0.0 Safari/537.36" version="26.1.3">
  <diagram name="Page-1" id="lRIsdWDsS49c_M3bNFeX">
    <mxGraphModel dx="903" dy="550" grid="1" gridSize="10" guides="1" tooltips="1" connect="1" arrows="1" fold="1" page="1" pageScale="1" pageWidth="850" pageHeight="1100" math="0" shadow="0">
      <root>
        <mxCell id="0" />
        <mxCell id="1" parent="0" />
        <mxCell id="_ZHjKuwMhrs1mYqgZ1Fp-31" value="" style="edgeStyle=orthogonalEdgeStyle;rounded=0;orthogonalLoop=1;jettySize=auto;html=1;fontSize=16;labelBackgroundColor=none;strokeColor=#A8201A;fontColor=default;" edge="1" parent="1" source="_ZHjKuwMhrs1mYqgZ1Fp-1" target="_ZHjKuwMhrs1mYqgZ1Fp-2">
          <mxGeometry relative="1" as="geometry" />
        </mxCell>
        <mxCell id="_ZHjKuwMhrs1mYqgZ1Fp-1" value="Long Time Ago" style="rounded=0;whiteSpace=wrap;html=1;fontSize=16;labelBackgroundColor=none;fillColor=#FAE5C7;strokeColor=#0F8B8D;fontColor=#143642;" vertex="1" parent="1">
          <mxGeometry x="170" y="90" width="120" height="60" as="geometry" />
        </mxCell>
        <mxCell id="_ZHjKuwMhrs1mYqgZ1Fp-12" value="" style="group;fontSize=16;labelBackgroundColor=none;fontColor=#143642;" vertex="1" connectable="0" parent="1">
          <mxGeometry x="400" y="90" width="120" height="60" as="geometry" />
        </mxCell>
        <mxCell id="_ZHjKuwMhrs1mYqgZ1Fp-2" value="" style="rounded=0;whiteSpace=wrap;html=1;fontSize=16;labelBackgroundColor=none;fillColor=#FAE5C7;strokeColor=#0F8B8D;fontColor=#143642;" vertex="1" parent="_ZHjKuwMhrs1mYqgZ1Fp-12">
          <mxGeometry width="120" height="60" as="geometry" />
        </mxCell>
        <mxCell id="_ZHjKuwMhrs1mYqgZ1Fp-11" value="" style="group;fontSize=16;labelBackgroundColor=none;fontColor=#143642;" vertex="1" connectable="0" parent="_ZHjKuwMhrs1mYqgZ1Fp-12">
          <mxGeometry x="24" y="15" width="72" height="30" as="geometry" />
        </mxCell>
        <mxCell id="_ZHjKuwMhrs1mYqgZ1Fp-4" value="" style="endArrow=none;html=1;rounded=0;strokeWidth=2;fontSize=16;labelBackgroundColor=none;strokeColor=#A8201A;fontColor=default;" edge="1" parent="_ZHjKuwMhrs1mYqgZ1Fp-11">
          <mxGeometry width="50" height="50" relative="1" as="geometry">
            <mxPoint y="30" as="sourcePoint" />
            <mxPoint x="42" y="30" as="targetPoint" />
          </mxGeometry>
        </mxCell>
        <mxCell id="_ZHjKuwMhrs1mYqgZ1Fp-5" value="" style="endArrow=none;html=1;rounded=0;strokeWidth=2;fontSize=16;labelBackgroundColor=none;strokeColor=#A8201A;fontColor=default;" edge="1" parent="_ZHjKuwMhrs1mYqgZ1Fp-11">
          <mxGeometry width="50" height="50" relative="1" as="geometry">
            <mxPoint x="42" y="30" as="sourcePoint" />
            <mxPoint x="72" as="targetPoint" />
          </mxGeometry>
        </mxCell>
        <mxCell id="_ZHjKuwMhrs1mYqgZ1Fp-13" value="" style="group;fontSize=16;labelBackgroundColor=none;fontColor=#143642;" vertex="1" connectable="0" parent="1">
          <mxGeometry x="400" y="199" width="120" height="60" as="geometry" />
        </mxCell>
        <mxCell id="_ZHjKuwMhrs1mYqgZ1Fp-14" value="" style="rounded=0;whiteSpace=wrap;html=1;fontSize=16;labelBackgroundColor=none;fillColor=#FAE5C7;strokeColor=#0F8B8D;fontColor=#143642;" vertex="1" parent="_ZHjKuwMhrs1mYqgZ1Fp-13">
          <mxGeometry width="120" height="60" as="geometry" />
        </mxCell>
        <mxCell id="_ZHjKuwMhrs1mYqgZ1Fp-15" value="" style="group;fontSize=16;labelBackgroundColor=none;fontColor=#143642;" vertex="1" connectable="0" parent="_ZHjKuwMhrs1mYqgZ1Fp-13">
          <mxGeometry x="24" y="15" width="72" height="30" as="geometry" />
        </mxCell>
        <mxCell id="_ZHjKuwMhrs1mYqgZ1Fp-16" value="" style="endArrow=none;html=1;rounded=0;strokeWidth=2;fontSize=16;labelBackgroundColor=none;strokeColor=#A8201A;fontColor=default;" edge="1" parent="_ZHjKuwMhrs1mYqgZ1Fp-15">
          <mxGeometry width="50" height="50" relative="1" as="geometry">
            <mxPoint y="30" as="sourcePoint" />
            <mxPoint x="42" y="30" as="targetPoint" />
          </mxGeometry>
        </mxCell>
        <mxCell id="_ZHjKuwMhrs1mYqgZ1Fp-17" value="" style="endArrow=none;html=1;rounded=0;strokeWidth=2;fontSize=16;labelBackgroundColor=none;strokeColor=#A8201A;fontColor=default;" edge="1" parent="_ZHjKuwMhrs1mYqgZ1Fp-15">
          <mxGeometry width="50" height="50" relative="1" as="geometry">
            <mxPoint x="42" y="30" as="sourcePoint" />
            <mxPoint x="72" as="targetPoint" />
          </mxGeometry>
        </mxCell>
        <mxCell id="_ZHjKuwMhrs1mYqgZ1Fp-18" value="" style="group;fontSize=16;labelBackgroundColor=none;fontColor=#143642;" vertex="1" connectable="0" parent="1">
          <mxGeometry x="410" y="400" width="120" height="60" as="geometry" />
        </mxCell>
        <mxCell id="_ZHjKuwMhrs1mYqgZ1Fp-19" value="" style="rounded=0;whiteSpace=wrap;html=1;fontSize=16;labelBackgroundColor=none;fillColor=#FAE5C7;strokeColor=#0F8B8D;fontColor=#143642;" vertex="1" parent="_ZHjKuwMhrs1mYqgZ1Fp-18">
          <mxGeometry width="120" height="60" as="geometry" />
        </mxCell>
        <mxCell id="_ZHjKuwMhrs1mYqgZ1Fp-20" value="" style="group;fontSize=16;labelBackgroundColor=none;fontColor=#143642;" vertex="1" connectable="0" parent="_ZHjKuwMhrs1mYqgZ1Fp-18">
          <mxGeometry x="24" y="15" width="72" height="30" as="geometry" />
        </mxCell>
        <mxCell id="_ZHjKuwMhrs1mYqgZ1Fp-21" value="" style="endArrow=none;html=1;rounded=0;strokeWidth=2;fontSize=16;labelBackgroundColor=none;strokeColor=#A8201A;fontColor=default;" edge="1" parent="_ZHjKuwMhrs1mYqgZ1Fp-20">
          <mxGeometry width="50" height="50" relative="1" as="geometry">
            <mxPoint y="30" as="sourcePoint" />
            <mxPoint x="42" y="30" as="targetPoint" />
          </mxGeometry>
        </mxCell>
        <mxCell id="_ZHjKuwMhrs1mYqgZ1Fp-22" value="" style="endArrow=none;html=1;rounded=0;strokeWidth=2;fontSize=16;labelBackgroundColor=none;strokeColor=#A8201A;fontColor=default;" edge="1" parent="_ZHjKuwMhrs1mYqgZ1Fp-20">
          <mxGeometry width="50" height="50" relative="1" as="geometry">
            <mxPoint x="42" y="30" as="sourcePoint" />
            <mxPoint x="72" as="targetPoint" />
          </mxGeometry>
        </mxCell>
        <mxCell id="_ZHjKuwMhrs1mYqgZ1Fp-23" value="" style="curved=1;endArrow=classic;html=1;rounded=0;entryX=0;entryY=0.5;entryDx=0;entryDy=0;strokeColor=#00562C;strokeWidth=2;fontSize=16;labelBackgroundColor=none;fontColor=default;" edge="1" parent="1">
          <mxGeometry width="50" height="50" relative="1" as="geometry">
            <mxPoint x="460" y="151" as="sourcePoint" />
            <mxPoint x="400" y="231" as="targetPoint" />
            <Array as="points">
              <mxPoint x="330" y="181" />
              <mxPoint x="310" y="241" />
            </Array>
          </mxGeometry>
        </mxCell>
        <mxCell id="_ZHjKuwMhrs1mYqgZ1Fp-24" value="" style="curved=1;endArrow=classic;html=1;rounded=0;entryX=0;entryY=0.5;entryDx=0;entryDy=0;strokeColor=#00562C;strokeWidth=2;fontSize=16;labelBackgroundColor=none;fontColor=default;" edge="1" parent="1">
          <mxGeometry width="50" height="50" relative="1" as="geometry">
            <mxPoint x="460" y="260" as="sourcePoint" />
            <mxPoint x="400" y="340" as="targetPoint" />
            <Array as="points">
              <mxPoint x="330" y="290" />
              <mxPoint x="310" y="350" />
            </Array>
          </mxGeometry>
        </mxCell>
        <mxCell id="_ZHjKuwMhrs1mYqgZ1Fp-25" value="" style="curved=1;endArrow=classic;html=1;rounded=0;entryX=0;entryY=0.5;entryDx=0;entryDy=0;strokeColor=#00562C;strokeWidth=2;fontSize=16;labelBackgroundColor=none;fontColor=default;" edge="1" parent="1">
          <mxGeometry width="50" height="50" relative="1" as="geometry">
            <mxPoint x="470" y="339" as="sourcePoint" />
            <mxPoint x="410" y="419" as="targetPoint" />
            <Array as="points">
              <mxPoint x="340" y="369" />
              <mxPoint x="320" y="429" />
            </Array>
          </mxGeometry>
        </mxCell>
        <mxCell id="_ZHjKuwMhrs1mYqgZ1Fp-28" value="" style="endArrow=none;dashed=1;html=1;dashPattern=1 3;strokeWidth=2;rounded=0;fontSize=16;labelBackgroundColor=none;strokeColor=#A8201A;fontColor=default;" edge="1" parent="1">
          <mxGeometry width="50" height="50" relative="1" as="geometry">
            <mxPoint x="469.5" y="340" as="sourcePoint" />
            <mxPoint x="470" y="300" as="targetPoint" />
          </mxGeometry>
        </mxCell>
        <mxCell id="_ZHjKuwMhrs1mYqgZ1Fp-32" value="" style="edgeStyle=orthogonalEdgeStyle;rounded=0;orthogonalLoop=1;jettySize=auto;html=1;fontSize=16;labelBackgroundColor=none;strokeColor=#A8201A;fontColor=default;" edge="1" parent="1" source="_ZHjKuwMhrs1mYqgZ1Fp-29" target="_ZHjKuwMhrs1mYqgZ1Fp-19">
          <mxGeometry relative="1" as="geometry" />
        </mxCell>
        <mxCell id="_ZHjKuwMhrs1mYqgZ1Fp-29" value="Today" style="rounded=0;whiteSpace=wrap;html=1;fontSize=16;labelBackgroundColor=none;fillColor=#FAE5C7;strokeColor=#0F8B8D;fontColor=#143642;" vertex="1" parent="1">
          <mxGeometry x="170" y="400" width="120" height="60" as="geometry" />
        </mxCell>
        <mxCell id="_ZHjKuwMhrs1mYqgZ1Fp-33" value="Tomorrow" style="rounded=0;whiteSpace=wrap;html=1;fontSize=16;labelBackgroundColor=none;fillColor=#FAE5C7;strokeColor=#0F8B8D;fontColor=#143642;" vertex="1" parent="1">
          <mxGeometry x="610" y="400" width="120" height="60" as="geometry" />
        </mxCell>
        <mxCell id="_ZHjKuwMhrs1mYqgZ1Fp-34" value="" style="edgeStyle=orthogonalEdgeStyle;rounded=0;orthogonalLoop=1;jettySize=auto;html=1;fontSize=16;labelBackgroundColor=none;strokeColor=#A8201A;fontColor=default;" edge="1" parent="1" source="_ZHjKuwMhrs1mYqgZ1Fp-19" target="_ZHjKuwMhrs1mYqgZ1Fp-33">
          <mxGeometry relative="1" as="geometry" />
        </mxCell>
        <mxCell id="_ZHjKuwMhrs1mYqgZ1Fp-35" value="" style="curved=1;endArrow=classic;html=1;rounded=0;exitX=1;exitY=0.5;exitDx=0;exitDy=0;entryX=0.175;entryY=-0.06;entryDx=0;entryDy=0;entryPerimeter=0;strokeColor=#0000FF;strokeWidth=2;fontSize=16;labelBackgroundColor=none;fontColor=default;" edge="1" parent="1" source="_ZHjKuwMhrs1mYqgZ1Fp-14" target="_ZHjKuwMhrs1mYqgZ1Fp-33">
          <mxGeometry width="50" height="50" relative="1" as="geometry">
            <mxPoint x="630" y="190" as="sourcePoint" />
            <mxPoint x="680" y="140" as="targetPoint" />
            <Array as="points">
              <mxPoint x="570" y="190" />
              <mxPoint x="630" y="260" />
            </Array>
          </mxGeometry>
        </mxCell>
        <mxCell id="_ZHjKuwMhrs1mYqgZ1Fp-36" value="" style="curved=1;endArrow=classic;html=1;rounded=0;exitX=1;exitY=0.5;exitDx=0;exitDy=0;entryX=0.25;entryY=0;entryDx=0;entryDy=0;strokeColor=#0000FF;strokeWidth=2;fontSize=16;labelBackgroundColor=none;fontColor=default;" edge="1" parent="1" target="_ZHjKuwMhrs1mYqgZ1Fp-33">
          <mxGeometry width="50" height="50" relative="1" as="geometry">
            <mxPoint x="520" y="120" as="sourcePoint" />
            <mxPoint x="650" y="390" as="targetPoint" />
            <Array as="points">
              <mxPoint x="570" y="80" />
              <mxPoint x="660" y="170" />
            </Array>
          </mxGeometry>
        </mxCell>
        <mxCell id="_ZHjKuwMhrs1mYqgZ1Fp-40" value="" style="endArrow=classic;html=1;rounded=0;fontSize=16;labelBackgroundColor=none;strokeColor=#A8201A;fontColor=default;" edge="1" parent="1">
          <mxGeometry width="50" height="50" relative="1" as="geometry">
            <mxPoint x="310" y="210" as="sourcePoint" />
            <mxPoint x="210" y="220" as="targetPoint" />
          </mxGeometry>
        </mxCell>
        <mxCell id="_ZHjKuwMhrs1mYqgZ1Fp-41" value="" style="endArrow=classic;html=1;rounded=0;fontSize=16;labelBackgroundColor=none;strokeColor=#A8201A;fontColor=default;" edge="1" parent="1">
          <mxGeometry width="50" height="50" relative="1" as="geometry">
            <mxPoint x="320" y="290" as="sourcePoint" />
            <mxPoint x="220" y="250" as="targetPoint" />
          </mxGeometry>
        </mxCell>
        <mxCell id="_ZHjKuwMhrs1mYqgZ1Fp-42" value="" style="endArrow=classic;html=1;rounded=0;fontSize=16;labelBackgroundColor=none;strokeColor=#A8201A;fontColor=default;" edge="1" parent="1">
          <mxGeometry width="50" height="50" relative="1" as="geometry">
            <mxPoint x="330" y="380" as="sourcePoint" />
            <mxPoint x="230" y="280" as="targetPoint" />
          </mxGeometry>
        </mxCell>
        <mxCell id="_ZHjKuwMhrs1mYqgZ1Fp-43" value="Path for Short Term Memory" style="text;html=1;align=center;verticalAlign=middle;whiteSpace=wrap;rounded=0;fontSize=16;labelBackgroundColor=none;fontColor=#143642;" vertex="1" parent="1">
          <mxGeometry x="60" y="245" width="140" height="30" as="geometry" />
        </mxCell>
        <mxCell id="_ZHjKuwMhrs1mYqgZ1Fp-44" value="Path for Long Term Memory (New in LSTM)" style="text;html=1;align=center;verticalAlign=middle;whiteSpace=wrap;rounded=0;fontSize=16;labelBackgroundColor=none;fontColor=#143642;" vertex="1" parent="1">
          <mxGeometry x="710" y="230" width="120" height="30" as="geometry" />
        </mxCell>
        <mxCell id="_ZHjKuwMhrs1mYqgZ1Fp-45" value="" style="endArrow=classic;html=1;rounded=0;fontSize=16;labelBackgroundColor=none;strokeColor=#A8201A;fontColor=default;" edge="1" parent="1">
          <mxGeometry width="50" height="50" relative="1" as="geometry">
            <mxPoint x="650" y="210" as="sourcePoint" />
            <mxPoint x="700" y="240" as="targetPoint" />
          </mxGeometry>
        </mxCell>
        <mxCell id="_ZHjKuwMhrs1mYqgZ1Fp-46" value="" style="endArrow=classic;html=1;rounded=0;fontSize=16;labelBackgroundColor=none;strokeColor=#A8201A;fontColor=default;" edge="1" parent="1">
          <mxGeometry width="50" height="50" relative="1" as="geometry">
            <mxPoint x="660" y="320" as="sourcePoint" />
            <mxPoint x="710" y="270" as="targetPoint" />
          </mxGeometry>
        </mxCell>
      </root>
    </mxGraphModel>
  </diagram>
</mxfile>
